<svg version="1.1" viewBox="0.0 0.0 958.0577427821522 284.6955380577428" fill="none" stroke="none" stroke-linecap="square" stroke-miterlimit="10" xmlns:xlink="http://www.w3.org/1999/xlink" xmlns="http://www.w3.org/2000/svg"><clipPath id="p.0"><path d="m0 0l958.05774 0l0 284.69553l-958.05774 0l0 -284.69553z" clip-rule="nonzero"/></clipPath><g clip-path="url(#p.0)"><path fill="#000000" fill-opacity="0.0" d="m0 0l958.05774 0l0 284.69553l-958.05774 0z" fill-rule="evenodd"/><path fill="#000000" fill-opacity="0.0" d="m147.55104 42.992126l233.25984 0l0 48.0l-233.25984 0z" fill-rule="evenodd"/><path fill="#000000" d="m157.78542 73.912125l0 -9.671875l1.46875 0l0 1.359375q0.453125 -0.71875 1.203125 -1.140625q0.765625 -0.4375 1.71875 -0.4375q1.078125 0 1.765625 0.453125q0.6875 0.4375 0.96875 1.234375q1.15625 -1.6875 2.984375 -1.6875q1.453125 0 2.21875 0.796875q0.78125 0.796875 0.78125 2.453125l0 6.640625l-1.640625 0l0 -6.09375q0 -0.984375 -0.15625 -1.40625q-0.15625 -0.4375 -0.578125 -0.703125q-0.421875 -0.265625 -0.984375 -0.265625q-1.015625 0 -1.6875 0.6875q-0.671875 0.671875 -0.671875 2.15625l0 5.625l-1.640625 0l0 -6.28125q0 -1.09375 -0.40625 -1.640625q-0.40625 -0.546875 -1.3125 -0.546875q-0.6875 0 -1.28125 0.359375q-0.59375 0.359375 -0.859375 1.0625q-0.25 0.703125 -0.25 2.03125l0 5.015625l-1.640625 0zm15.540802 -11.46875l0 -1.890625l1.640625 0l0 1.890625l-1.640625 0zm0 11.46875l0 -9.671875l1.640625 0l0 9.671875l-1.640625 0zm4.144821 0l0 -9.671875l1.46875 0l0 1.375q1.0625 -1.59375 3.078125 -1.59375q0.875 0 1.609375 0.3125q0.734375 0.3125 1.09375 0.828125q0.375 0.5 0.515625 1.203125q0.09375 0.453125 0.09375 1.59375l0 5.953125l-1.640625 0l0 -5.890625q0 -1.0 -0.203125 -1.484375q-0.1875 -0.5 -0.671875 -0.796875q-0.484375 -0.296875 -1.140625 -0.296875q-1.046875 0 -1.8125 0.671875q-0.75 0.65625 -0.75 2.515625l0 5.28125l-1.640625 0zm10.375717 -11.46875l0 -1.890625l1.640625 0l0 1.890625l-1.640625 0zm0 11.46875l0 -9.671875l1.640625 0l0 9.671875l-1.640625 0zm9.53125 0l0 -13.359375l4.609375 0q1.546875 0 2.375 0.203125q1.140625 0.25 1.953125 0.953125q1.0625 0.890625 1.578125 2.28125q0.53125 1.390625 0.53125 3.171875q0 1.515625 -0.359375 2.703125q-0.359375 1.171875 -0.921875 1.9375q-0.546875 0.765625 -1.203125 1.21875q-0.65625 0.4375 -1.59375 0.671875q-0.9375 0.21875 -2.140625 0.21875l-4.828125 0zm1.765625 -1.578125l2.859375 0q1.3125 0 2.0625 -0.234375q0.75 -0.25 1.203125 -0.703125q0.625 -0.625 0.96875 -1.6875q0.359375 -1.0625 0.359375 -2.578125q0 -2.09375 -0.6875 -3.21875q-0.6875 -1.125 -1.671875 -1.5q-0.703125 -0.28125 -2.28125 -0.28125l-2.8125 0l0 10.203125zm12.004196 1.578125l0 -13.359375l1.765625 0l0 13.359375l-1.765625 0zm4.870804 0l0 -13.359375l1.8125 0l7.015625 10.484375l0 -10.484375l1.6875 0l0 13.359375l-1.8125 0l-7.015625 -10.5l0 10.5l-1.6875 0zm12.644821 -4.015625l0 -1.640625l5.03125 0l0 1.640625l-5.03125 0zm14.900177 -6.0625l-1.625 0.125q-0.21875 -0.96875 -0.625 -1.40625q-0.65625 -0.703125 -1.640625 -0.703125q-0.78125 0 -1.375 0.4375q-0.765625 0.5625 -1.21875 1.65625q-0.453125 1.078125 -0.46875 3.078125q0.59375 -0.890625 1.453125 -1.328125q0.859375 -0.4375 1.796875 -0.4375q1.640625 0 2.78125 1.203125q1.15625 1.203125 1.15625 3.109375q0 1.265625 -0.546875 2.34375q-0.53125 1.078125 -1.484375 1.65625q-0.9375 0.578125 -2.140625 0.578125q-2.0625 0 -3.359375 -1.5q-1.28125 -1.515625 -1.28125 -4.984375q0 -3.875 1.421875 -5.625q1.25 -1.53125 3.375 -1.53125q1.5625 0 2.5625 0.890625q1.015625 0.875 1.21875 2.4375zm-6.6875 5.75q0 0.84375 0.359375 1.625q0.359375 0.765625 1.0 1.171875q0.640625 0.40625 1.359375 0.40625q1.03125 0 1.78125 -0.828125q0.75 -0.84375 0.75 -2.28125q0 -1.390625 -0.734375 -2.1875q-0.734375 -0.796875 -1.859375 -0.796875q-1.109375 0 -1.890625 0.796875q-0.765625 0.796875 -0.765625 2.09375zm14.199646 8.03125l0 -13.375l1.484375 0l0 1.25q0.53125 -0.734375 1.1875 -1.09375q0.671875 -0.375 1.625 -0.375q1.234375 0 2.171875 0.640625q0.953125 0.625 1.4375 1.796875q0.484375 1.15625 0.484375 2.546875q0 1.484375 -0.53125 2.671875q-0.53125 1.1875 -1.546875 1.828125q-1.015625 0.625 -2.140625 0.625q-0.8125 0 -1.46875 -0.34375q-0.65625 -0.34375 -1.0625 -0.875l0 4.703125l-1.640625 0zm1.484375 -8.484375q0 1.859375 0.75 2.765625q0.765625 0.890625 1.828125 0.890625q1.09375 0 1.875 -0.921875q0.78125 -0.9375 0.78125 -2.875q0 -1.84375 -0.765625 -2.765625q-0.75 -0.921875 -1.8125 -0.921875q-1.046875 0 -1.859375 0.984375q-0.796875 0.96875 -0.796875 2.84375zm8.844482 4.78125l0 -13.359375l1.640625 0l0 13.359375l-1.640625 0zm10.519806 0l0 -1.421875q-1.125 1.640625 -3.0625 1.640625q-0.859375 0 -1.609375 -0.328125q-0.734375 -0.328125 -1.09375 -0.828125q-0.359375 -0.5 -0.5 -1.21875q-0.109375 -0.46875 -0.109375 -1.53125l0 -5.984375l1.640625 0l0 5.359375q0 1.28125 0.109375 1.734375q0.15625 0.640625 0.65625 1.015625q0.5 0.375 1.234375 0.375q0.734375 0 1.375 -0.375q0.65625 -0.390625 0.921875 -1.03125q0.265625 -0.65625 0.265625 -1.890625l0 -5.1875l1.640625 0l0 9.671875l-1.46875 0zm3.7351074 0.796875l1.59375 0.234375q0.109375 0.75 0.5625 1.078125q0.609375 0.453125 1.671875 0.453125q1.140625 0 1.75 -0.453125q0.625 -0.453125 0.84375 -1.265625q0.125 -0.5 0.109375 -2.109375q-1.0625 1.265625 -2.671875 1.265625q-2.0 0 -3.09375 -1.4375q-1.09375 -1.4375 -1.09375 -3.453125q0 -1.390625 0.5 -2.5625q0.515625 -1.171875 1.453125 -1.796875q0.953125 -0.640625 2.25 -0.640625q1.703125 0 2.8125 1.375l0 -1.15625l1.515625 0l0 8.359375q0 2.265625 -0.46875 3.203125q-0.453125 0.9375 -1.453125 1.484375q-0.984375 0.546875 -2.453125 0.546875q-1.71875 0 -2.796875 -0.78125q-1.0625 -0.765625 -1.03125 -2.34375zm1.359375 -5.8125q0 1.90625 0.75 2.78125q0.765625 0.875 1.90625 0.875q1.125 0 1.890625 -0.859375q0.765625 -0.875 0.765625 -2.734375q0 -1.78125 -0.796875 -2.671875q-0.78125 -0.90625 -1.890625 -0.90625q-1.09375 0 -1.859375 0.890625q-0.765625 0.875 -0.765625 2.625zm17.637146 8.9375q-1.359375 -1.703125 -2.296875 -4.0q-0.9375 -2.296875 -0.9375 -4.765625q0 -2.15625 0.703125 -4.140625q0.828125 -2.3125 2.53125 -4.59375l1.171875 0q-1.09375 1.890625 -1.453125 2.703125q-0.546875 1.25 -0.875 2.625q-0.390625 1.703125 -0.390625 3.421875q0 4.375 2.71875 8.75l-1.171875 0zm3.290802 -3.921875l0 -13.359375l4.609375 0q1.546875 0 2.375 0.203125q1.140625 0.25 1.953125 0.953125q1.0625 0.890625 1.578125 2.28125q0.53125 1.390625 0.53125 3.171875q0 1.515625 -0.359375 2.703125q-0.359375 1.171875 -0.921875 1.9375q-0.546875 0.765625 -1.203125 1.21875q-0.65625 0.4375 -1.59375 0.671875q-0.9375 0.21875 -2.140625 0.21875l-4.828125 0zm1.765625 -1.578125l2.859375 0q1.3125 0 2.0625 -0.234375q0.75 -0.25 1.203125 -0.703125q0.625 -0.625 0.96875 -1.6875q0.359375 -1.0625 0.359375 -2.578125q0 -2.09375 -0.6875 -3.21875q-0.6875 -1.125 -1.671875 -1.5q-0.703125 -0.28125 -2.28125 -0.28125l-2.8125 0l0 10.203125zm12.004181 1.578125l0 -13.359375l1.765625 0l0 13.359375l-1.765625 0zm4.870819 0l0 -13.359375l1.8125 0l7.015625 10.484375l0 -10.484375l1.6875 0l0 13.359375l-1.8125 0l-7.015625 -10.5l0 10.5l-1.6875 0zm12.019806 0l5.125 -13.359375l1.90625 0l5.46875 13.359375l-2.015625 0l-1.546875 -4.046875l-5.59375 0l-1.46875 4.046875l-1.875 0zm3.859375 -5.484375l4.53125 0l-1.40625 -3.703125q-0.625 -1.6875 -0.9375 -2.765625q-0.265625 1.28125 -0.71875 2.546875l-1.46875 3.921875zm10.115448 5.484375l0 -13.359375l1.765625 0l0 5.484375l6.9375 0l0 -5.484375l1.765625 0l0 13.359375l-1.765625 0l0 -6.296875l-6.9375 0l0 6.296875l-1.765625 0zm14.285461 3.921875l-1.1875 0q2.734375 -4.375 2.734375 -8.75q0 -1.71875 -0.390625 -3.390625q-0.3125 -1.375 -0.875 -2.625q-0.359375 -0.828125 -1.46875 -2.734375l1.1875 0q1.703125 2.28125 2.53125 4.59375q0.6875 1.984375 0.6875 4.140625q0 2.46875 -0.9375 4.765625q-0.9375 2.296875 -2.28125 4.0z" fill-rule="nonzero"/><path fill="#000000" fill-opacity="0.0" d="m669.1627 66.0l204.94489 0l0 48.0l-204.94489 0z" fill-rule="evenodd"/><path fill="#000000" d="m726.4047 96.92l0 -13.359375l4.609375 0q1.546875 0 2.375 0.203125q1.140625 0.25 1.953125 0.953125q1.0625 0.890625 1.578125 2.28125q0.53125 1.390625 0.53125 3.171875q0 1.515625 -0.359375 2.703125q-0.359375 1.171875 -0.921875 1.9375q-0.546875 0.765625 -1.203125 1.21875q-0.65625 0.4375 -1.59375 0.671875q-0.9375 0.21875 -2.140625 0.21875l-4.828125 0zm1.765625 -1.578125l2.859375 0q1.3125 0 2.0625 -0.234375q0.75 -0.25 1.203125 -0.703125q0.625 -0.625 0.96875 -1.6875q0.359375 -1.0625 0.359375 -2.578125q0 -2.09375 -0.6875 -3.21875q-0.6875 -1.125 -1.671875 -1.5q-0.703125 -0.28125 -2.28125 -0.28125l-2.8125 0l0 10.203125zm11.629211 1.578125l0 -13.359375l5.015625 0q1.53125 0 2.453125 0.40625q0.921875 0.40625 1.4375 1.25q0.53125 0.84375 0.53125 1.765625q0 0.859375 -0.46875 1.625q-0.453125 0.75 -1.390625 1.203125q1.203125 0.359375 1.859375 1.21875q0.65625 0.859375 0.65625 2.015625q0 0.9375 -0.40625 1.75q-0.390625 0.796875 -0.984375 1.234375q-0.578125 0.4375 -1.453125 0.671875q-0.875 0.21875 -2.15625 0.21875l-5.09375 0zm1.78125 -7.75l2.875 0q1.1875 0 1.6875 -0.140625q0.671875 -0.203125 1.015625 -0.671875q0.34375 -0.46875 0.34375 -1.171875q0 -0.65625 -0.328125 -1.15625q-0.3125 -0.515625 -0.90625 -0.703125q-0.59375 -0.1875 -2.03125 -0.1875l-2.65625 0l0 4.03125zm0 6.171875l3.3125 0q0.859375 0 1.203125 -0.0625q0.609375 -0.109375 1.015625 -0.359375q0.421875 -0.265625 0.6875 -0.75q0.265625 -0.484375 0.265625 -1.125q0 -0.75 -0.390625 -1.296875q-0.375 -0.546875 -1.0625 -0.765625q-0.671875 -0.234375 -1.953125 -0.234375l-3.078125 0l0 4.59375zm9.8966675 -2.4375l0 -1.640625l5.03125 0l0 1.640625l-5.03125 0zm12.5720825 4.015625l-1.640625 0l0 -10.453125q-0.59375 0.5625 -1.5625 1.140625q-0.953125 0.5625 -1.71875 0.84375l0 -1.59375q1.375 -0.640625 2.40625 -1.5625q1.03125 -0.921875 1.453125 -1.78125l1.0625 0l0 13.40625zm4.2037964 -3.5l1.71875 -0.140625q0.1875 1.25 0.875 1.890625q0.703125 0.625 1.6875 0.625q1.1875 0 2.0 -0.890625q0.828125 -0.890625 0.828125 -2.359375q0 -1.40625 -0.796875 -2.21875q-0.78125 -0.8125 -2.0625 -0.8125q-0.78125 0 -1.421875 0.359375q-0.640625 0.359375 -1.0 0.9375l-1.546875 -0.203125l1.296875 -6.859375l6.640625 0l0 1.5625l-5.328125 0l-0.71875 3.59375q1.203125 -0.84375 2.515625 -0.84375q1.75 0 2.953125 1.21875q1.203125 1.203125 1.203125 3.109375q0 1.8125 -1.046875 3.140625q-1.296875 1.625 -3.515625 1.625q-1.8125 0 -2.96875 -1.015625q-1.15625 -1.03125 -1.3125 -2.71875zm16.012146 7.203125l0 -13.375l1.484375 0l0 1.25q0.53125 -0.734375 1.1875 -1.09375q0.671875 -0.375 1.625 -0.375q1.234375 0 2.171875 0.640625q0.953125 0.625 1.4375 1.796875q0.484375 1.15625 0.484375 2.546875q0 1.484375 -0.53125 2.671875q-0.53125 1.1875 -1.546875 1.828125q-1.015625 0.625 -2.140625 0.625q-0.8125 0 -1.46875 -0.34375q-0.65625 -0.34375 -1.0625 -0.875l0 4.703125l-1.640625 0zm1.484375 -8.484375q0 1.859375 0.75 2.765625q0.765625 0.890625 1.828125 0.890625q1.09375 0 1.875 -0.921875q0.78125 -0.9375 0.78125 -2.875q0 -1.84375 -0.765625 -2.765625q-0.75 -0.921875 -1.8125 -0.921875q-1.046875 0 -1.859375 0.984375q-0.796875 0.96875 -0.796875 2.84375zm8.844482 4.78125l0 -13.359375l1.640625 0l0 13.359375l-1.640625 0zm10.519836 0l0 -1.421875q-1.125 1.640625 -3.0625 1.640625q-0.859375 0 -1.609375 -0.328125q-0.734375 -0.328125 -1.09375 -0.828125q-0.359375 -0.5 -0.5 -1.21875q-0.109375 -0.46875 -0.109375 -1.53125l0 -5.984375l1.640625 0l0 5.359375q0 1.28125 0.109375 1.734375q0.15625 0.640625 0.65625 1.015625q0.5 0.375 1.234375 0.375q0.734375 0 1.375 -0.375q0.65625 -0.390625 0.921875 -1.03125q0.265625 -0.65625 0.265625 -1.890625l0 -5.1875l1.640625 0l0 9.671875l-1.46875 0zm3.7351074 0.796875l1.59375 0.234375q0.109375 0.75 0.5625 1.078125q0.609375 0.453125 1.671875 0.453125q1.140625 0 1.75 -0.453125q0.625 -0.453125 0.84375 -1.265625q0.125 -0.5 0.109375 -2.109375q-1.0625 1.265625 -2.671875 1.265625q-2.0 0 -3.09375 -1.4375q-1.09375 -1.4375 -1.09375 -3.453125q0 -1.390625 0.5 -2.5625q0.515625 -1.171875 1.453125 -1.796875q0.953125 -0.640625 2.25 -0.640625q1.703125 0 2.8125 1.375l0 -1.15625l1.515625 0l0 8.359375q0 2.265625 -0.46875 3.203125q-0.453125 0.9375 -1.453125 1.484375q-0.984375 0.546875 -2.453125 0.546875q-1.71875 0 -2.796875 -0.78125q-1.0625 -0.765625 -1.03125 -2.34375zm1.359375 -5.8125q0 1.90625 0.75 2.78125q0.765625 0.875 1.90625 0.875q1.125 0 1.890625 -0.859375q0.765625 -0.875 0.765625 -2.734375q0 -1.78125 -0.796875 -2.671875q-0.78125 -0.90625 -1.890625 -0.90625q-1.09375 0 -1.859375 0.890625q-0.765625 0.875 -0.765625 2.625z" fill-rule="nonzero"/><path fill="#000000" fill-opacity="0.0" d="m378.5013 38.501312l0 0" fill-rule="evenodd"/><path stroke="#000000" stroke-width="1.0" stroke-linejoin="round" stroke-linecap="butt" d="m378.5013 38.501312l0 0" fill-rule="evenodd"/><path fill="#cfe2f3" d="m215.70735 196.6181l0 0c26.022614 0 47.11812 -21.09549 47.11812 -47.118103l0 0c0 -12.496506 -4.9642334 -24.481178 -13.800583 -33.317535c-8.836365 -8.836357 -20.821045 -13.800575 -33.317535 -13.800575l0 0c-26.022614 0 -47.11812 21.095497 -47.11812 47.11811l0 0c0 26.022614 21.095505 47.118103 47.11812 47.118103z" fill-rule="evenodd"/><path stroke="#073763" stroke-width="2.0" stroke-linejoin="round" stroke-linecap="butt" d="m215.70735 196.6181l0 0c26.022614 0 47.11812 -21.09549 47.11812 -47.118103l0 0c0 -12.496506 -4.9642334 -24.481178 -13.800583 -33.317535c-8.836365 -8.836357 -20.821045 -13.800575 -33.317535 -13.800575l0 0c-26.022614 0 -47.11812 21.095497 -47.11812 47.11811l0 0c0 26.022614 21.095505 47.118103 47.11812 47.118103z" fill-rule="evenodd"/><path fill="#cfe2f3" d="m202.70378 178.58739l0 0c0 -3.409378 -2.763855 -6.173233 -6.173233 -6.173233l0 0c-1.6372375 0 -3.207428 0.6504059 -4.3651276 1.8081055c-1.1576996 1.1576996 -1.8080902 2.72789 -1.8080902 4.3651276l0 0c0 3.409378 2.7638397 6.173233 6.173218 6.173233l0 0c3.409378 0 6.173233 -2.763855 6.173233 -6.173233z" fill-rule="evenodd"/><path stroke="#073763" stroke-width="2.0" stroke-linejoin="round" stroke-linecap="butt" d="m202.70378 178.58739l0 0c0 -3.409378 -2.763855 -6.173233 -6.173233 -6.173233l0 0c-1.6372375 0 -3.207428 0.6504059 -4.3651276 1.8081055c-1.1576996 1.1576996 -1.8080902 2.72789 -1.8080902 4.3651276l0 0c0 3.409378 2.7638397 6.173233 6.173218 6.173233l0 0c3.409378 0 6.173233 -2.763855 6.173233 -6.173233z" fill-rule="evenodd"/><path fill="#cfe2f3" d="m242.70378 178.58739l0 0c0 -3.409378 -2.763855 -6.173233 -6.173233 -6.173233l0 0c-1.6372375 0 -3.207428 0.6504059 -4.3651276 1.8081055c-1.1576996 1.1576996 -1.8080902 2.72789 -1.8080902 4.3651276l0 0c0 3.409378 2.7638397 6.173233 6.173218 6.173233l0 0c3.409378 0 6.173233 -2.763855 6.173233 -6.173233z" fill-rule="evenodd"/><path stroke="#073763" stroke-width="2.0" stroke-linejoin="round" stroke-linecap="butt" d="m242.70378 178.58739l0 0c0 -3.409378 -2.763855 -6.173233 -6.173233 -6.173233l0 0c-1.6372375 0 -3.207428 0.6504059 -4.3651276 1.8081055c-1.1576996 1.1576996 -1.8080902 2.72789 -1.8080902 4.3651276l0 0c0 3.409378 2.7638397 6.173233 6.173218 6.173233l0 0c3.409378 0 6.173233 -2.763855 6.173233 -6.173233z" fill-rule="evenodd"/><path fill="#cfe2f3" d="m250.70378 154.58739l0 0c0 -3.409378 -2.763855 -6.173233 -6.173233 -6.173233l0 0c-1.6372375 0 -3.207428 0.6504059 -4.3651276 1.8081055c-1.1576996 1.1576996 -1.8080902 2.72789 -1.8080902 4.3651276l0 0c0 3.409378 2.7638397 6.173233 6.173218 6.173233l0 0c3.409378 0 6.173233 -2.763855 6.173233 -6.173233z" fill-rule="evenodd"/><path stroke="#073763" stroke-width="2.0" stroke-linejoin="round" stroke-linecap="butt" d="m250.70378 154.58739l0 0c0 -3.409378 -2.763855 -6.173233 -6.173233 -6.173233l0 0c-1.6372375 0 -3.207428 0.6504059 -4.3651276 1.8081055c-1.1576996 1.1576996 -1.8080902 2.72789 -1.8080902 4.3651276l0 0c0 3.409378 2.7638397 6.173233 6.173218 6.173233l0 0c3.409378 0 6.173233 -2.763855 6.173233 -6.173233z" fill-rule="evenodd"/><path fill="#cfe2f3" d="m194.70378 154.58739l0 0c0 -3.409378 -2.763855 -6.173233 -6.173233 -6.173233l0 0c-1.6372375 0 -3.207428 0.6504059 -4.3651276 1.8081055c-1.1576996 1.1576996 -1.8080902 2.72789 -1.8080902 4.3651276l0 0c0 3.409378 2.7638397 6.173233 6.173218 6.173233l0 0c3.409378 0 6.173233 -2.763855 6.173233 -6.173233z" fill-rule="evenodd"/><path stroke="#073763" stroke-width="2.0" stroke-linejoin="round" stroke-linecap="butt" d="m194.70378 154.58739l0 0c0 -3.409378 -2.763855 -6.173233 -6.173233 -6.173233l0 0c-1.6372375 0 -3.207428 0.6504059 -4.3651276 1.8081055c-1.1576996 1.1576996 -1.8080902 2.72789 -1.8080902 4.3651276l0 0c0 3.409378 2.7638397 6.173233 6.173218 6.173233l0 0c3.409378 0 6.173233 -2.763855 6.173233 -6.173233z" fill-rule="evenodd"/><path fill="#cfe2f3" d="m202.70378 130.58739l0 0c0 -3.409378 -2.763855 -6.1732254 -6.173233 -6.1732254l0 0c-1.6372375 0 -3.207428 0.6503906 -4.3651276 1.8080978c-1.1576996 1.1576996 -1.8080902 2.72789 -1.8080902 4.3651276l0 0c0 3.409378 2.7638397 6.173233 6.173218 6.173233l0 0c3.409378 0 6.173233 -2.763855 6.173233 -6.173233z" fill-rule="evenodd"/><path stroke="#073763" stroke-width="2.0" stroke-linejoin="round" stroke-linecap="butt" d="m202.70378 130.58739l0 0c0 -3.409378 -2.763855 -6.1732254 -6.173233 -6.1732254l0 0c-1.6372375 0 -3.207428 0.6503906 -4.3651276 1.8080978c-1.1576996 1.1576996 -1.8080902 2.72789 -1.8080902 4.3651276l0 0c0 3.409378 2.7638397 6.173233 6.173218 6.173233l0 0c3.409378 0 6.173233 -2.763855 6.173233 -6.173233z" fill-rule="evenodd"/><path fill="#cfe2f3" d="m242.70378 130.58739l0 0c0 -3.409378 -2.763855 -6.1732254 -6.173233 -6.1732254l0 0c-1.6372375 0 -3.207428 0.6503906 -4.3651276 1.8080978c-1.1576996 1.1576996 -1.8080902 2.72789 -1.8080902 4.3651276l0 0c0 3.409378 2.7638397 6.173233 6.173218 6.173233l0 0c3.409378 0 6.173233 -2.763855 6.173233 -6.173233z" fill-rule="evenodd"/><path stroke="#073763" stroke-width="2.0" stroke-linejoin="round" stroke-linecap="butt" d="m242.70378 130.58739l0 0c0 -3.409378 -2.763855 -6.1732254 -6.173233 -6.1732254l0 0c-1.6372375 0 -3.207428 0.6503906 -4.3651276 1.8080978c-1.1576996 1.1576996 -1.8080902 2.72789 -1.8080902 4.3651276l0 0c0 3.409378 2.7638397 6.173233 6.173218 6.173233l0 0c3.409378 0 6.173233 -2.763855 6.173233 -6.173233z" fill-rule="evenodd"/><path fill="#000000" d="m222.27034 126.866264l-12.881882 0l0 30.330711l12.881882 0z" fill-rule="evenodd"/><path stroke="#073763" stroke-width="1.0" stroke-linejoin="round" stroke-linecap="butt" d="m222.27034 126.866264l-12.881882 0l0 30.330711l12.881882 0z" fill-rule="evenodd"/><path fill="#000000" fill-opacity="0.0" d="m286.0 119.44095l25.88977 0l0 18.047241l-25.88977 0z" fill-rule="evenodd"/><path fill="#000000" fill-opacity="0.0" d="m109.333336 161.44095l66.551186 0l0 18.047241l-66.551186 0z" fill-rule="evenodd"/><path fill="#000000" d="m124.22123 171.40956l0 -1.0l3.625 -0.015625l0 3.1875q-0.828125 0.671875 -1.71875 1.015625q-0.890625 0.328125 -1.828125 0.328125q-1.265625 0 -2.3125 -0.53125q-1.03125 -0.546875 -1.5625 -1.5625q-0.515625 -1.03125 -0.515625 -2.296875q0 -1.265625 0.515625 -2.34375q0.53125 -1.09375 1.515625 -1.609375q0.984375 -0.53125 2.265625 -0.53125q0.9375 0 1.6875 0.296875q0.75 0.296875 1.171875 0.84375q0.4375 0.53125 0.65625 1.40625l-1.015625 0.28125q-0.203125 -0.65625 -0.5 -1.03125q-0.28125 -0.375 -0.8125 -0.59375q-0.53125 -0.234375 -1.171875 -0.234375q-0.78125 0 -1.359375 0.234375q-0.5625 0.234375 -0.921875 0.625q-0.34375 0.390625 -0.53125 0.859375q-0.328125 0.796875 -0.328125 1.71875q0 1.15625 0.390625 1.9375q0.40625 0.765625 1.15625 1.140625q0.75 0.375 1.609375 0.375q0.734375 0 1.4375 -0.28125q0.703125 -0.296875 1.0625 -0.609375l0 -1.609375l-2.515625 0zm5.3027267 3.375l0 -8.59375l1.15625 0l4.515625 6.75l0 -6.75l1.09375 0l0 8.59375l-1.171875 0l-4.515625 -6.75l0 6.75l-1.078125 0zm8.666016 0l0 -8.59375l2.96875 0q1.0 0 1.53125 0.125q0.734375 0.171875 1.25 0.609375q0.6875 0.578125 1.015625 1.484375q0.34375 0.890625 0.34375 2.03125q0 0.984375 -0.234375 1.734375q-0.21875 0.75 -0.578125 1.25q-0.359375 0.5 -0.796875 0.78125q-0.421875 0.28125 -1.015625 0.4375q-0.59375 0.140625 -1.375 0.140625l-3.109375 0zm1.140625 -1.015625l1.828125 0q0.859375 0 1.34375 -0.15625q0.484375 -0.15625 0.765625 -0.453125q0.40625 -0.390625 0.625 -1.078125q0.234375 -0.6875 0.234375 -1.65625q0 -1.34375 -0.453125 -2.0625q-0.4375 -0.734375 -1.0625 -0.984375q-0.46875 -0.171875 -1.46875 -0.171875l-1.8125 0l0 6.5625zm9.90625 -1.671875l0 -0.84375l6.6875 0l0 0.84375l-6.6875 0zm16.085938 1.671875l0 1.015625l-5.6875 0q0 -0.375 0.125 -0.734375q0.21875 -0.578125 0.6875 -1.140625q0.484375 -0.5625 1.390625 -1.296875q1.40625 -1.15625 1.890625 -1.828125q0.5 -0.671875 0.5 -1.265625q0 -0.625 -0.453125 -1.046875q-0.453125 -0.4375 -1.171875 -0.4375q-0.765625 0 -1.21875 0.453125q-0.453125 0.453125 -0.46875 1.265625l-1.078125 -0.109375q0.109375 -1.21875 0.828125 -1.84375q0.734375 -0.640625 1.96875 -0.640625q1.234375 0 1.953125 0.6875q0.71875 0.6875 0.71875 1.703125q0 0.515625 -0.21875 1.015625q-0.203125 0.484375 -0.703125 1.046875q-0.484375 0.546875 -1.609375 1.5q-0.953125 0.796875 -1.234375 1.09375q-0.265625 0.28125 -0.4375 0.5625l4.21875 0z" fill-rule="nonzero"/><path fill="#000000" fill-opacity="0.0" d="m98.666664 137.44095l69.228355 0l0 18.047241l-69.228355 0z" fill-rule="evenodd"/><path fill="#000000" d="m112.840324 148.80019l1.015625 -0.09375q0.125 0.71875 0.484375 1.046875q0.375 0.3125 0.9375 0.3125q0.484375 0 0.84375 -0.21875q0.375 -0.234375 0.609375 -0.59375q0.234375 -0.375 0.390625 -1.0q0.15625 -0.640625 0.15625 -1.296875q0 -0.078125 0 -0.21875q-0.3125 0.5 -0.859375 0.828125q-0.546875 0.3125 -1.1875 0.3125q-1.078125 0 -1.8125 -0.765625q-0.734375 -0.78125 -0.734375 -2.046875q0 -1.3125 0.765625 -2.109375q0.78125 -0.796875 1.9375 -0.796875q0.828125 0 1.515625 0.453125q0.703125 0.453125 1.0625 1.296875q0.359375 0.828125 0.359375 2.40625q0 1.640625 -0.359375 2.625q-0.34375 0.96875 -1.0625 1.484375q-0.703125 0.5 -1.640625 0.5q-1.015625 0 -1.65625 -0.546875q-0.640625 -0.5625 -0.765625 -1.578125zm4.3125 -3.796875q0 -0.90625 -0.484375 -1.4375q-0.46875 -0.53125 -1.15625 -0.53125q-0.703125 0 -1.234375 0.578125q-0.515625 0.5625 -0.515625 1.484375q0 0.8125 0.5 1.328125q0.5 0.515625 1.21875 0.515625q0.734375 0 1.203125 -0.515625q0.46875 -0.515625 0.46875 -1.421875zm7.673828 -0.703125l-1.046875 0.078125q-0.140625 -0.625 -0.390625 -0.90625q-0.4375 -0.453125 -1.0625 -0.453125q-0.5 0 -0.890625 0.28125q-0.484375 0.375 -0.78125 1.078125q-0.28125 0.6875 -0.296875 1.96875q0.375 -0.578125 0.921875 -0.859375q0.5625 -0.28125 1.171875 -0.28125q1.046875 0 1.78125 0.78125q0.75 0.78125 0.75 2.0q0 0.8125 -0.359375 1.515625q-0.34375 0.6875 -0.953125 1.0625q-0.609375 0.359375 -1.375 0.359375q-1.328125 0 -2.15625 -0.96875q-0.828125 -0.96875 -0.828125 -3.1875q0 -2.5 0.921875 -3.625q0.796875 -0.984375 2.15625 -0.984375q1.015625 0 1.65625 0.578125q0.65625 0.5625 0.78125 1.5625zm-4.296875 3.703125q0 0.546875 0.21875 1.046875q0.234375 0.484375 0.640625 0.75q0.421875 0.265625 0.890625 0.265625q0.65625 0 1.140625 -0.53125q0.484375 -0.546875 0.484375 -1.46875q0 -0.890625 -0.484375 -1.40625q-0.46875 -0.515625 -1.1875 -0.515625q-0.71875 0 -1.21875 0.515625q-0.484375 0.515625 -0.484375 1.34375zm5.501953 -1.453125q0 -1.53125 0.3125 -2.453125q0.3125 -0.9375 0.921875 -1.4375q0.625 -0.5 1.5625076 -0.5q0.6875 0 1.203125 0.28125q0.53125 0.28125 0.875 0.8125q0.34375 0.515625 0.53125 1.265625q0.1875 0.75 0.1875 2.03125q0 1.515625 -0.3125 2.4375q-0.296875 0.921875 -0.921875 1.4375q-0.609375 0.5 -1.5625 0.5q-1.2343826 0 -1.9531326 -0.890625q-0.84375 -1.0625 -0.84375 -3.484375zm1.078125 0q0 2.109375 0.5 2.8125q0.5000076 0.703125 1.2187576 0.703125q0.734375 0 1.21875 -0.703125q0.5 -0.703125 0.5 -2.8125q0 -2.125 -0.5 -2.8125q-0.484375 -0.703125 -1.234375 -0.703125q-0.71875 0 -1.1562576 0.609375q-0.546875 0.78125 -0.546875 2.90625zm5.5957108 0q0 -1.53125 0.3125 -2.453125q0.3125 -0.9375 0.921875 -1.4375q0.625 -0.5 1.5625 -0.5q0.6875 0 1.203125 0.28125q0.53125 0.28125 0.875 0.8125q0.34375 0.515625 0.53125 1.265625q0.1875 0.75 0.1875 2.03125q0 1.515625 -0.3125 2.4375q-0.296875 0.921875 -0.921875 1.4375q-0.609375 0.5 -1.5625 0.5q-1.234375 0 -1.953125 -0.890625q-0.84375 -1.0625 -0.84375 -3.484375zm1.078125 0q0 2.109375 0.5 2.8125q0.5 0.703125 1.21875 0.703125q0.734375 0 1.21875 -0.703125q0.5 -0.703125 0.5 -2.8125q0 -2.125 -0.5 -2.8125q-0.484375 -0.703125 -1.234375 -0.703125q-0.71875 0 -1.15625 0.609375q-0.546875 0.78125 -0.546875 2.90625zm8.3984375 1.546875l0 -0.84375l6.6875 0l0 0.84375l-6.6875 0zm13.9140625 2.6875l0 -2.0625l-3.71875 0l0 -0.96875l3.921875 -5.5625l0.859375 0l0 5.5625l1.15625 0l0 0.96875l-1.15625 0l0 2.0625l-1.0625 0zm0 -3.03125l0 -3.859375l-2.6875 3.859375l2.6875 0z" fill-rule="nonzero"/><path fill="#000000" fill-opacity="0.0" d="m102.850395 112.77428l73.039375 0l0 18.047241l-73.039375 0z" fill-rule="evenodd"/><path fill="#000000" d="m127.93273 123.10227l1.1250076 0.296875q-0.359375 1.390625 -1.2812576 2.125q-0.921875 0.734375 -2.265625 0.734375q-1.390625 0 -2.265625 -0.5625q-0.875 -0.5625 -1.328125 -1.625q-0.453125 -1.078125 -0.453125 -2.3125q0 -1.34375 0.515625 -2.34375q0.515625 -1.0 1.453125 -1.515625q0.953125 -0.515625 2.09375 -0.515625q1.28125 0 2.15625 0.65625q0.8906326 0.65625 1.2343826 1.84375l-1.1250076 0.265625q-0.296875 -0.9375 -0.875 -1.359375q-0.5625 -0.4375 -1.421875 -0.4375q-0.984375 0 -1.65625 0.484375q-0.65625 0.46875 -0.9375 1.265625q-0.265625 0.796875 -0.265625 1.65625q0 1.09375 0.3125 1.90625q0.328125 0.8125 1.0 1.21875q0.671875 0.40625 1.46875 0.40625q0.953125 0 1.609375 -0.546875q0.671875 -0.546875 0.90625 -1.640625zm2.1816483 -1.171875q0 -2.140625 1.140625 -3.34375q1.15625 -1.21875 2.96875 -1.21875q1.203125 0 2.15625 0.578125q0.953125 0.5625 1.453125 1.578125q0.5 1.015625 0.5 2.3125q0 1.296875 -0.53125 2.328125q-0.53125 1.03125 -1.5 1.5625q-0.953125 0.53125 -2.078125 0.53125q-1.21875 0 -2.171875 -0.578125q-0.953125 -0.59375 -1.453125 -1.59375q-0.484375 -1.015625 -0.484375 -2.15625zm1.171875 0.015625q0 1.5625 0.828125 2.453125q0.84375 0.890625 2.109375 0.890625q1.28125 0 2.109375 -0.890625q0.828125 -0.90625 0.828125 -2.578125q0 -1.046875 -0.359375 -1.828125q-0.34375 -0.78125 -1.03125 -1.203125q-0.6875 -0.4375 -1.53125 -0.4375q-1.203125 0 -2.078125 0.828125q-0.875 0.828125 -0.875 2.765625zm8.130859 1.40625l1.0625 -0.09375q0.078125 0.65625 0.359375 1.0625q0.28125 0.40625 0.859375 0.671875q0.59375 0.25 1.328125 0.25q0.640625 0 1.140625 -0.1875q0.5 -0.203125 0.734375 -0.53125q0.25 -0.34375 0.25 -0.734375q0 -0.40625 -0.234375 -0.703125q-0.234375 -0.3125 -0.765625 -0.515625q-0.359375 -0.140625 -1.546875 -0.421875q-1.171875 -0.28125 -1.640625 -0.53125q-0.625 -0.328125 -0.921875 -0.796875q-0.296875 -0.484375 -0.296875 -1.078125q0 -0.640625 0.359375 -1.203125q0.375 -0.578125 1.078125 -0.859375q0.71875 -0.296875 1.578125 -0.296875q0.953125 0 1.6875 0.3125q0.734375 0.296875 1.125 0.90625q0.390625 0.59375 0.421875 1.34375l-1.09375 0.078125q-0.09375 -0.8125 -0.609375 -1.21875q-0.5 -0.421875 -1.484375 -0.421875q-1.03125 0 -1.5 0.375q-0.46875 0.375 -0.46875 0.90625q0 0.46875 0.328125 0.765625q0.328125 0.296875 1.703125 0.609375q1.390625 0.3125 1.90625 0.546875q0.75 0.359375 1.109375 0.890625q0.359375 0.515625 0.359375 1.21875q0 0.6875 -0.390625 1.296875q-0.390625 0.59375 -1.125 0.9375q-0.734375 0.328125 -1.65625 0.328125q-1.171875 0 -1.96875 -0.328125q-0.78125 -0.34375 -1.234375 -1.03125q-0.4375 -0.6875 -0.453125 -1.546875zm10.759766 0.078125l0 -0.84375l6.6875 0l0 0.84375l-6.6875 0zm16.007812 -3.796875l-1.046875 0.078125q-0.140625 -0.625 -0.390625 -0.90625q-0.4375 -0.453125 -1.0625 -0.453125q-0.5 0 -0.890625 0.28125q-0.484375 0.375 -0.78125 1.078125q-0.28125 0.6875 -0.296875 1.96875q0.375 -0.578125 0.921875 -0.859375q0.5625 -0.28125 1.171875 -0.28125q1.046875 0 1.78125 0.78125q0.75 0.78125 0.75 2.0q0 0.8125 -0.359375 1.515625q-0.34375 0.6875 -0.953125 1.0625q-0.609375 0.359375 -1.375 0.359375q-1.328125 0 -2.15625 -0.96875q-0.828125 -0.96875 -0.828125 -3.1875q0 -2.5 0.921875 -3.625q0.796875 -0.984375 2.15625 -0.984375q1.015625 0 1.65625 0.578125q0.65625 0.5625 0.78125 1.5625zm-4.296875 3.703125q0 0.546875 0.21875 1.046875q0.234375 0.484375 0.640625 0.75q0.421875 0.265625 0.890625 0.265625q0.65625 0 1.140625 -0.53125q0.484375 -0.546875 0.484375 -1.46875q0 -0.890625 -0.484375 -1.40625q-0.46875 -0.515625 -1.1875 -0.515625q-0.71875 0 -1.21875 0.515625q-0.484375 0.515625 -0.484375 1.34375z" fill-rule="nonzero"/><path fill="#000000" fill-opacity="0.0" d="m254.0 159.44095l97.98425 0l0 18.047241l-97.98425 0z" fill-rule="evenodd"/><path fill="#000000" d="m267.46875 172.78456l-1.046875 0l0 -6.71875q-0.390625 0.359375 -1.015625 0.734375q-0.609375 0.359375 -1.09375 0.53125l0 -1.015625q0.875 -0.421875 1.53125 -1.0q0.671875 -0.59375 0.953125 -1.15625l0.671875 0l0 8.625zm5.5078125 -2.6875l0 -0.84375l6.6875 0l0 0.84375l-6.6875 0zm10.9609375 2.6875l0 -8.59375l2.96875 0q1.0 0 1.53125 0.125q0.734375 0.171875 1.25 0.609375q0.6875 0.578125 1.015625 1.484375q0.34375 0.890625 0.34375 2.03125q0 0.984375 -0.234375 1.734375q-0.21875 0.75 -0.578125 1.25q-0.359375 0.5 -0.796875 0.78125q-0.421875 0.28125 -1.015625 0.4375q-0.59375 0.140625 -1.375 0.140625l-3.109375 0zm1.140625 -1.015625l1.828125 0q0.859375 0 1.34375 -0.15625q0.484375 -0.15625 0.765625 -0.453125q0.40625 -0.390625 0.625 -1.078125q0.234375 -0.6875 0.234375 -1.65625q0 -1.34375 -0.453125 -2.0625q-0.4375 -0.734375 -1.0625 -0.984375q-0.46875 -0.171875 -1.46875 -0.171875l-1.8125 0l0 6.5625zm6.5878906 1.015625l3.296875 -8.59375l1.21875 0l3.515625 8.59375l-1.28125 0l-1.015625 -2.609375l-3.578125 0l-0.953125 2.609375l-1.203125 0zm2.484375 -3.53125l2.90625 0l-0.890625 -2.375q-0.421875 -1.078125 -0.609375 -1.78125q-0.171875 0.828125 -0.46875 1.640625l-0.9375 2.515625zm7.7539062 3.53125l0 -7.578125l-2.828125 0l0 -1.015625l6.8125 0l0 1.015625l-2.84375 0l0 7.578125l-1.140625 0zm3.3144531 0l3.296875 -8.59375l1.21875 0l3.515625 8.59375l-1.28125 0l-1.015625 -2.609375l-3.578125 0l-0.953125 2.609375l-1.203125 0zm2.484375 -3.53125l2.90625 0l-0.890625 -2.375q-0.421875 -1.078125 -0.609375 -1.78125q-0.171875 0.828125 -0.46875 1.640625l-0.9375 2.515625zm9.332031 3.53125l0 -8.59375l1.125 0l0 8.59375l-1.125 0zm3.1308594 0l0 -8.59375l1.15625 0l4.515625 6.75l0 -6.75l1.09375 0l0 8.59375l-1.171875 0l-4.515625 -6.75l0 6.75l-1.078125 0z" fill-rule="nonzero"/><path fill="#000000" fill-opacity="0.0" d="m262.0 135.44095l73.03937 0l0 18.047241l-73.03937 0z" fill-rule="evenodd"/><path fill="#000000" d="m271.5 146.51894l1.0625 -0.140625q0.171875 0.890625 0.609375 1.296875q0.4375 0.390625 1.0625 0.390625q0.75 0 1.265625 -0.515625q0.515625 -0.515625 0.515625 -1.28125q0 -0.71875 -0.484375 -1.1875q-0.46875 -0.484375 -1.203125 -0.484375q-0.296875 0 -0.75 0.125l0.125 -0.9375q0.109375 0.015625 0.171875 0.015625q0.671875 0 1.203125 -0.34375q0.546875 -0.359375 0.546875 -1.09375q0 -0.578125 -0.390625 -0.953125q-0.390625 -0.390625 -1.015625 -0.390625q-0.609375 0 -1.03125 0.390625q-0.40625 0.390625 -0.515625 1.15625l-1.0625 -0.1875q0.1875 -1.046875 0.875 -1.625q0.6875 -0.59375 1.703125 -0.59375q0.703125 0 1.296875 0.3125q0.59375 0.296875 0.90625 0.8125q0.3125 0.515625 0.3125 1.109375q0 0.546875 -0.296875 1.015625q-0.296875 0.453125 -0.875 0.71875q0.75 0.171875 1.171875 0.734375q0.421875 0.546875 0.421875 1.390625q0 1.125 -0.828125 1.90625q-0.8125 0.78125 -2.0625 0.78125q-1.125 0 -1.875 -0.671875q-0.75 -0.6875 -0.859375 -1.75zm9.4765625 -0.421875l0 -0.84375l6.6875 0l0 0.84375l-6.6875 0zm10.9609375 2.6875l0 -8.59375l3.25 0q0.84375 0 1.296875 0.078125q0.640625 0.109375 1.0625 0.40625q0.4375 0.296875 0.6875 0.828125q0.265625 0.53125 0.265625 1.171875q0 1.09375 -0.703125 1.859375q-0.6875 0.75 -2.515625 0.75l-2.203125 0l0 3.5l-1.140625 0zm1.140625 -4.5l2.21875 0q1.109375 0 1.5625 -0.40625q0.46875 -0.421875 0.46875 -1.171875q0 -0.53125 -0.28125 -0.90625q-0.265625 -0.390625 -0.703125 -0.515625q-0.296875 -0.078125 -1.0625 -0.078125l-2.203125 0l0 3.078125zm9.050781 4.5l0 -7.578125l-2.828125 0l0 -1.015625l6.8125 0l0 1.015625l-2.84375 0l0 7.578125l-1.140625 0zm7.330078 0l0 -7.578125l-2.828125 0l0 -1.015625l6.8125 0l0 1.015625l-2.84375 0l0 7.578125l-1.140625 0z" fill-rule="nonzero"/><path fill="#000000" fill-opacity="0.0" d="m254.0 111.44095l73.03937 0l0 18.047241l-73.03937 0z" fill-rule="evenodd"/><path fill="#000000" d="m263.5 122.53457l1.109375 -0.09375q0.125 0.8125 0.5625 1.21875q0.453125 0.40625 1.09375 0.40625q0.75 0 1.28125 -0.578125q0.53125 -0.578125 0.53125 -1.515625q0 -0.90625 -0.515625 -1.421875q-0.5 -0.53125 -1.328125 -0.53125q-0.5 0 -0.921875 0.234375q-0.40625 0.234375 -0.640625 0.59375l-0.984375 -0.125l0.828125 -4.40625l4.28125 0l0 1.0l-3.4375 0l-0.453125 2.3125q0.765625 -0.546875 1.609375 -0.546875q1.125 0 1.890625 0.78125q0.78125 0.78125 0.78125 2.015625q0 1.15625 -0.671875 2.015625q-0.828125 1.03125 -2.25 1.03125q-1.171875 0 -1.921875 -0.65625q-0.734375 -0.65625 -0.84375 -1.734375zm9.4765625 -0.4375l0 -0.84375l6.6875 0l0 0.84375l-6.6875 0zm14.5078125 2.6875l-1.046875 0l0 -6.71875q-0.390625 0.359375 -1.015625 0.734375q-0.609375 0.359375 -1.09375 0.53125l0 -1.015625q0.875 -0.421875 1.53125 -1.0q0.671875 -0.59375 0.953125 -1.15625l0.671875 0l0 8.625zm8.251953 -1.015625l0 1.015625l-5.6875 0q0 -0.375 0.125 -0.734375q0.21875 -0.578125 0.6875 -1.140625q0.484375 -0.5625 1.390625 -1.296875q1.40625 -1.15625 1.890625 -1.828125q0.5 -0.671875 0.5 -1.265625q0 -0.625 -0.453125 -1.046875q-0.453125 -0.4375 -1.171875 -0.4375q-0.765625 0 -1.21875 0.453125q-0.453125 0.453125 -0.46875 1.265625l-1.078125 -0.109375q0.109375 -1.21875 0.828125 -1.84375q0.734375 -0.640625 1.96875 -0.640625q1.234375 0 1.953125 0.6875q0.71875 0.6875 0.71875 1.703125q0 0.515625 -0.21875 1.015625q-0.203125 0.484375 -0.703125 1.046875q-0.484375 0.546875 -1.609375 1.5q-0.953125 0.796875 -1.234375 1.09375q-0.265625 0.28125 -0.4375 0.5625l4.21875 0zm1.1269531 -3.21875q0 -1.53125 0.3125 -2.453125q0.3125 -0.9375 0.921875 -1.4375q0.625 -0.5 1.5625 -0.5q0.6875 0 1.203125 0.28125q0.53125 0.28125 0.875 0.8125q0.34375 0.515625 0.53125 1.265625q0.1875 0.75 0.1875 2.03125q0 1.515625 -0.3125 2.4375q-0.296875 0.921875 -0.921875 1.4375q-0.609375 0.5 -1.5625 0.5q-1.234375 0 -1.953125 -0.890625q-0.84375 -1.0625 -0.84375 -3.484375zm1.078125 0q0 2.109375 0.5 2.8125q0.5 0.703125 1.21875 0.703125q0.734375 0 1.21875 -0.703125q0.5 -0.703125 0.5 -2.8125q0 -2.125 -0.5 -2.8125q-0.484375 -0.703125 -1.234375 -0.703125q-0.71875 0 -1.15625 0.609375q-0.546875 0.78125 -0.546875 2.90625zm5.595703 0q0 -1.53125 0.3125 -2.453125q0.3125 -0.9375 0.921875 -1.4375q0.625 -0.5 1.5625 -0.5q0.6875 0 1.203125 0.28125q0.53125 0.28125 0.875 0.8125q0.34375 0.515625 0.53125 1.265625q0.1875 0.75 0.1875 2.03125q0 1.515625 -0.3125 2.4375q-0.296875 0.921875 -0.921875 1.4375q-0.609375 0.5 -1.5625 0.5q-1.234375 0 -1.953125 -0.890625q-0.84375 -1.0625 -0.84375 -3.484375zm1.078125 0q0 2.109375 0.5 2.8125q0.5 0.703125 1.21875 0.703125q0.734375 0 1.21875 -0.703125q0.5 -0.703125 0.5 -2.8125q0 -2.125 -0.5 -2.8125q-0.484375 -0.703125 -1.234375 -0.703125q-0.71875 0 -1.15625 0.609375q-0.546875 0.78125 -0.546875 2.90625z" fill-rule="nonzero"/><path fill="#000000" fill-opacity="0.0" d="m247.89569 154.95251l505.10236 0" fill-rule="evenodd"/><path stroke="#4a86e8" stroke-width="2.0" stroke-linejoin="round" stroke-linecap="butt" d="m247.89569 154.95251l505.10236 0" fill-rule="evenodd"/><path fill="#000000" fill-opacity="0.0" d="m753.46454 142.35962l144.0 0l0 23.968506l-144.0 0z" fill-rule="evenodd"/><path fill="#000000" d="m768.4333 152.37949l-1.046875 0.078125q-0.140625 -0.625 -0.390625 -0.90625q-0.4375 -0.453125 -1.0625 -0.453125q-0.5 0 -0.890625 0.28125q-0.484375 0.375 -0.78125 1.078125q-0.28125 0.6875 -0.296875 1.96875q0.375 -0.578125 0.921875 -0.859375q0.5625 -0.28125 1.171875 -0.28125q1.046875 0 1.78125 0.78125q0.75 0.78125 0.75 2.0q0 0.8125 -0.359375 1.515625q-0.34375 0.6875 -0.953125 1.0625q-0.609375 0.359375 -1.375 0.359375q-1.328125 0 -2.15625 -0.96875q-0.828125 -0.96875 -0.828125 -3.1875q0 -2.5 0.921875 -3.625q0.796875 -0.984375 2.15625 -0.984375q1.015625 0 1.65625 0.578125q0.65625 0.5625 0.78125 1.5625zm-4.296875 3.703125q0 0.546875 0.21875 1.046875q0.234375 0.484375 0.640625 0.75q0.421875 0.265625 0.890625 0.265625q0.65625 0 1.140625 -0.53125q0.484375 -0.546875 0.484375 -1.46875q0 -0.890625 -0.484375 -1.40625q-0.46875 -0.515625 -1.1875 -0.515625q-0.71875 0 -1.21875 0.515625q-0.484375 0.515625 -0.484375 1.34375zm9.2890625 2.78125l0 -8.59375l6.203125 0l0 1.015625l-5.0625 0l0 2.625l4.75 0l0 1.015625l-4.75 0l0 2.921875l5.265625 0l0 1.015625l-6.40625 0zm7.0976562 0l3.328125 -4.484375l-2.921875 -4.109375l1.34375 0l1.5625 2.203125q0.484375 0.6875 0.6875 1.0625q0.296875 -0.46875 0.6875 -0.984375l1.71875 -2.28125l1.234375 0l-3.015625 4.046875l3.25 4.546875l-1.40625 0l-2.15625 -3.0625q-0.1875 -0.265625 -0.375 -0.578125q-0.28125 0.46875 -0.40625 0.640625l-2.15625 3.0l-1.375 0zm11.066406 0l0 -7.578125l-2.828125 0l0 -1.015625l6.8125 0l0 1.015625l-2.84375 0l0 7.578125l-1.140625 0zm8.259766 0l0 -8.59375l3.25 0q0.84375 0 1.296875 0.078125q0.640625 0.109375 1.0625 0.40625q0.4375 0.296875 0.6875 0.828125q0.265625 0.53125 0.265625 1.171875q0 1.09375 -0.703125 1.859375q-0.6875 0.75 -2.515625 0.75l-2.203125 0l0 3.5l-1.140625 0zm1.140625 -4.5l2.21875 0q1.109375 0 1.5625 -0.40625q0.46875 -0.421875 0.46875 -1.171875q0 -0.53125 -0.28125 -0.90625q-0.265625 -0.390625 -0.703125 -0.515625q-0.296875 -0.078125 -1.0625 -0.078125l-2.203125 0l0 3.078125zm9.050781 4.5l0 -7.578125l-2.828125 0l0 -1.015625l6.8125 0l0 1.015625l-2.84375 0l0 7.578125l-1.140625 0zm7.330078 0l0 -7.578125l-2.828125 0l0 -1.015625l6.8125 0l0 1.015625l-2.84375 0l0 7.578125l-1.140625 0z" fill-rule="nonzero"/><path fill="#000000" fill-opacity="0.0" d="m238.34645 178.59584l515.1181 -0.25196838" fill-rule="evenodd"/><path stroke="#ff0000" stroke-width="2.0" stroke-linejoin="round" stroke-linecap="butt" d="m238.34645 178.59584l515.1181 -0.25196838" fill-rule="evenodd"/><path fill="#000000" fill-opacity="0.0" d="m753.46454 166.35962l144.0 0l0 23.968506l-144.0 0z" fill-rule="evenodd"/><path fill="#000000" d="m766.9333 182.86386l-1.046875 0l0 -6.71875q-0.390625 0.359375 -1.015625 0.734375q-0.609375 0.359375 -1.09375 0.53125l0 -1.015625q0.875 -0.421875 1.53125 -1.0q0.671875 -0.59375 0.953125 -1.15625l0.671875 0l0 8.625zm4.861328 0l3.296875 -8.59375l1.21875 0l3.515625 8.59375l-1.28125 0l-1.015625 -2.609375l-3.578125 0l-0.953125 2.609375l-1.203125 0zm2.484375 -3.53125l2.90625 0l-0.890625 -2.375q-0.421875 -1.078125 -0.609375 -1.78125q-0.171875 0.828125 -0.46875 1.640625l-0.9375 2.515625zm6.5195312 3.53125l0 -8.59375l5.796875 0l0 1.015625l-4.65625 0l0 2.65625l4.03125 0l0 1.015625l-4.03125 0l0 3.90625l-1.140625 0zm10.8046875 0l0 -8.59375l1.125 0l0 8.59375l-1.125 0zm3.1308594 0l0 -8.59375l1.15625 0l4.515625 6.75l0 -6.75l1.09375 0l0 8.59375l-1.171875 0l-4.515625 -6.75l0 6.75l-1.078125 0z" fill-rule="nonzero"/><path fill="#000000" fill-opacity="0.0" d="m236.53055 130.09395l516.78735 0" fill-rule="evenodd"/><path stroke="#00ff00" stroke-width="2.0" stroke-linejoin="round" stroke-linecap="butt" d="m236.53055 130.09395l516.78735 0" fill-rule="evenodd"/><path fill="#000000" fill-opacity="0.0" d="m753.46454 118.35962l144.0 0l0 23.968506l-144.0 0z" fill-rule="evenodd"/><path fill="#000000" d="m768.5114 133.84824l0 1.015625l-5.6875 0q0 -0.375 0.125 -0.734375q0.21875 -0.578125 0.6875 -1.140625q0.484375 -0.5625 1.390625 -1.296875q1.40625 -1.15625 1.890625 -1.828125q0.5 -0.671875 0.5 -1.265625q0 -0.6249924 -0.453125 -1.0468674q-0.453125 -0.4375 -1.171875 -0.4375q-0.765625 0 -1.21875 0.453125q-0.453125 0.45311737 -0.46875 1.2656174l-1.078125 -0.109375q0.109375 -1.2187424 0.828125 -1.8437424q0.734375 -0.640625 1.96875 -0.640625q1.234375 0 1.953125 0.6875q0.71875 0.6875 0.71875 1.7031174q0 0.515625 -0.21875 1.015625q-0.203125 0.484375 -0.703125 1.046875q-0.484375 0.546875 -1.609375 1.5q-0.953125 0.796875 -1.234375 1.09375q-0.265625 0.28125 -0.4375 0.5625l4.21875 0zm3.2832031 1.015625l3.296875 -8.593742l1.21875 0l3.515625 8.593742l-1.28125 0l-1.015625 -2.609375l-3.578125 0l-0.953125 2.609375l-1.203125 0zm2.484375 -3.53125l2.90625 0l-0.890625 -2.375q-0.421875 -1.0781174 -0.609375 -1.7812424q-0.171875 0.8281174 -0.46875 1.6406174l-0.9375 2.515625zm6.5195312 3.53125l0 -8.593742l5.796875 0l0 1.015625l-4.65625 0l0 2.6562424l4.03125 0l0 1.015625l-4.03125 0l0 3.90625l-1.140625 0zm10.2578125 -4.1875q0 -2.140625 1.140625 -3.3437424q1.15625 -1.21875 2.96875 -1.21875q1.203125 0 2.15625 0.578125q0.953125 0.5625 1.453125 1.5781174q0.5 1.015625 0.5 2.3125q0 1.296875 -0.53125 2.328125q-0.53125 1.03125 -1.5 1.5625q-0.953125 0.53125 -2.078125 0.53125q-1.21875 0 -2.171875 -0.578125q-0.953125 -0.59375 -1.453125 -1.59375q-0.484375 -1.015625 -0.484375 -2.15625zm1.171875 0.015625q0 1.5625 0.828125 2.453125q0.84375 0.890625 2.109375 0.890625q1.28125 0 2.109375 -0.890625q0.828125 -0.90625 0.828125 -2.578125q0 -1.046875 -0.359375 -1.828125q-0.34375 -0.7812424 -1.03125 -1.2031174q-0.6875 -0.4375 -1.53125 -0.4375q-1.203125 0 -2.078125 0.828125q-0.875 0.8281174 -0.875 2.7656174zm14.146484 -4.4218674l1.140625 0l0 4.9687424q0 1.296875 -0.296875 2.0625q-0.296875 0.75 -1.0625 1.234375q-0.765625 0.46875 -2.0 0.46875q-1.203125 0 -1.984375 -0.40625q-0.765625 -0.421875 -1.09375 -1.203125q-0.328125 -0.796875 -0.328125 -2.15625l0 -4.9687424l1.140625 0l0 4.9531174q0 1.125 0.203125 1.65625q0.21875 0.53125 0.71875 0.828125q0.515625 0.28125 1.25 0.28125q1.25 0 1.78125 -0.5625q0.53125 -0.578125 0.53125 -2.203125l0 -4.9531174zm5.2128906 8.593742l0 -7.5781174l-2.828125 0l0 -1.015625l6.8125 0l0 1.015625l-2.84375 0l0 7.5781174l-1.140625 0z" fill-rule="nonzero"/><path fill="#000000" fill-opacity="0.0" d="m753.46454 188.15927l144.0 0l0 48.0l-144.0 0z" fill-rule="evenodd"/><path fill="#000000" d="m762.96454 214.41364l1.0625 -0.140625q0.171875 0.890625 0.609375 1.296875q0.4375 0.390625 1.0625 0.390625q0.75 0 1.265625 -0.515625q0.515625 -0.515625 0.515625 -1.28125q0 -0.71875 -0.484375 -1.1875q-0.46875 -0.484375 -1.203125 -0.484375q-0.296875 0 -0.75 0.125l0.125 -0.9375q0.109375 0.015625 0.171875 0.015625q0.671875 0 1.203125 -0.34375q0.546875 -0.359375 0.546875 -1.09375q0 -0.578125 -0.390625 -0.953125q-0.390625 -0.390625 -1.015625 -0.390625q-0.609375 0 -1.03125 0.390625q-0.40625 0.390625 -0.515625 1.15625l-1.0625 -0.1875q0.1875 -1.046875 0.875 -1.625q0.6875 -0.59375 1.703125 -0.59375q0.703125 0 1.296875 0.3125q0.59375 0.296875 0.90625 0.8125q0.3125 0.515625 0.3125 1.109375q0 0.546875 -0.296875 1.015625q-0.296875 0.453125 -0.875 0.71875q0.75 0.171875 1.171875 0.734375q0.421875 0.546875 0.421875 1.390625q0 1.125 -0.828125 1.90625q-0.8125 0.78125 -2.0625 0.78125q-1.125 0 -1.875 -0.671875q-0.75 -0.6875 -0.859375 -1.75zm8.830078 2.265625l3.296875 -8.59375l1.21875 0l3.515625 8.59375l-1.28125 0l-1.015625 -2.609375l-3.578125 0l-0.953125 2.609375l-1.203125 0zm2.484375 -3.53125l2.90625 0l-0.890625 -2.375q-0.421875 -1.078125 -0.609375 -1.78125q-0.171875 0.828125 -0.46875 1.640625l-0.9375 2.515625zm6.5195312 3.53125l0 -8.59375l5.796875 0l0 1.015625l-4.65625 0l0 2.65625l4.03125 0l0 1.015625l-4.03125 0l0 3.90625l-1.140625 0zm14.6328125 -3.375l0 -1.0l3.625 -0.015625l0 3.1875q-0.828125 0.671875 -1.71875 1.015625q-0.890625 0.328125 -1.828125 0.328125q-1.265625 0 -2.3125 -0.53125q-1.03125 -0.546875 -1.5625 -1.5625q-0.515625 -1.03125 -0.515625 -2.296875q0 -1.265625 0.515625 -2.34375q0.53125 -1.09375 1.515625 -1.609375q0.984375 -0.53125 2.265625 -0.53125q0.9375 0 1.6875 0.296875q0.75 0.296875 1.171875 0.84375q0.4375 0.53125 0.65625 1.40625l-1.015625 0.28125q-0.203125 -0.65625 -0.5 -1.03125q-0.28125 -0.375 -0.8125 -0.59375q-0.53125 -0.234375 -1.171875 -0.234375q-0.78125 0 -1.359375 0.234375q-0.5625 0.234375 -0.921875 0.625q-0.34375 0.390625 -0.53125 0.859375q-0.328125 0.796875 -0.328125 1.71875q0 1.15625 0.390625 1.9375q0.40625 0.765625 1.15625 1.140625q0.75 0.375 1.609375 0.375q0.734375 0 1.4375 -0.28125q0.703125 -0.296875 1.0625 -0.609375l0 -1.609375l-2.515625 0zm5.3027344 3.375l0 -8.59375l1.15625 0l4.515625 6.75l0 -6.75l1.09375 0l0 8.59375l-1.171875 0l-4.515625 -6.75l0 6.75l-1.078125 0zm8.666016 0l0 -8.59375l2.96875 0q1.0 0 1.53125 0.125q0.734375 0.171875 1.25 0.609375q0.6875 0.578125 1.015625 1.484375q0.34375 0.890625 0.34375 2.03125q0 0.984375 -0.234375 1.734375q-0.21875 0.75 -0.578125 1.25q-0.359375 0.5 -0.796875 0.78125q-0.421875 0.28125 -1.015625 0.4375q-0.59375 0.140625 -1.375 0.140625l-3.109375 0zm1.140625 -1.015625l1.828125 0q0.859375 0 1.34375 -0.15625q0.484375 -0.15625 0.765625 -0.453125q0.40625 -0.390625 0.625 -1.078125q0.234375 -0.6875 0.234375 -1.65625q0 -1.34375 -0.453125 -2.0625q-0.4375 -0.734375 -1.0625 -0.984375q-0.46875 -0.171875 -1.46875 -0.171875l-1.8125 0l0 6.5625z" fill-rule="nonzero"/><path fill="#000000" fill-opacity="0.0" d="m753.46454 212.15927l144.0 0l0 48.0l-144.0 0z" fill-rule="evenodd"/><path fill="#000000" d="m766.9333 240.67926l-1.046875 0l0 -6.71875q-0.390625 0.359375 -1.015625 0.734375q-0.609375 0.359375 -1.09375 0.53125l0 -1.015625q0.875 -0.421875 1.53125 -1.0q0.671875 -0.59375 0.953125 -1.15625l0.671875 0l0 8.625zm2.7050781 -2.25l1.109375 -0.09375q0.125 0.8125 0.5625 1.21875q0.453125 0.40625 1.09375 0.40625q0.75 0 1.28125 -0.578125q0.53125 -0.578125 0.53125 -1.515625q0 -0.90625 -0.515625 -1.421875q-0.5 -0.53125 -1.328125 -0.53125q-0.5 0 -0.921875 0.234375q-0.40625 0.234375 -0.640625 0.59375l-0.984375 -0.125l0.828125 -4.40625l4.28125 0l0 1.0l-3.4375 0l-0.453125 2.3125q0.765625 -0.546875 1.609375 -0.546875q1.125 0 1.890625 0.78125q0.78125 0.78125 0.78125 2.015625q0 1.15625 -0.671875 2.015625q-0.828125 1.03125 -2.25 1.03125q-1.171875 0 -1.921875 -0.65625q-0.734375 -0.65625 -0.84375 -1.734375zm14.4609375 -1.125l0 -1.0l3.625 -0.015625l0 3.1875q-0.828125 0.671875 -1.71875 1.015625q-0.890625 0.328125 -1.828125 0.328125q-1.265625 0 -2.3125 -0.53125q-1.03125 -0.546875 -1.5625 -1.5625q-0.515625 -1.03125 -0.515625 -2.296875q0 -1.265625 0.515625 -2.34375q0.53125 -1.09375 1.515625 -1.609375q0.984375 -0.53125 2.265625 -0.53125q0.9375 0 1.6875 0.296875q0.75 0.296875 1.171875 0.84375q0.4375 0.53125 0.65625 1.40625l-1.015625 0.28125q-0.203125 -0.65625 -0.5 -1.03125q-0.28125 -0.375 -0.8125 -0.59375q-0.53125 -0.234375 -1.171875 -0.234375q-0.78125 0 -1.359375 0.234375q-0.5625 0.234375 -0.921875 0.625q-0.34375 0.390625 -0.53125 0.859375q-0.328125 0.796875 -0.328125 1.71875q0 1.15625 0.390625 1.9375q0.40625 0.765625 1.15625 1.140625q0.75 0.375 1.609375 0.375q0.734375 0 1.4375 -0.28125q0.703125 -0.296875 1.0625 -0.609375l0 -1.609375l-2.515625 0zm5.3027344 3.375l0 -8.59375l1.15625 0l4.515625 6.75l0 -6.75l1.09375 0l0 8.59375l-1.171875 0l-4.515625 -6.75l0 6.75l-1.078125 0zm8.666016 0l0 -8.59375l2.96875 0q1.0 0 1.53125 0.125q0.734375 0.171875 1.25 0.609375q0.6875 0.578125 1.015625 1.484375q0.34375 0.890625 0.34375 2.03125q0 0.984375 -0.234375 1.734375q-0.21875 0.75 -0.578125 1.25q-0.359375 0.5 -0.796875 0.78125q-0.421875 0.28125 -1.015625 0.4375q-0.59375 0.140625 -1.375 0.140625l-3.109375 0zm1.140625 -1.015625l1.828125 0q0.859375 0 1.34375 -0.15625q0.484375 -0.15625 0.765625 -0.453125q0.40625 -0.390625 0.625 -1.078125q0.234375 -0.6875 0.234375 -1.65625q0 -1.34375 -0.453125 -2.0625q-0.4375 -0.734375 -1.0625 -0.984375q-0.46875 -0.171875 -1.46875 -0.171875l-1.8125 0l0 6.5625z" fill-rule="nonzero"/><path fill="#000000" fill-opacity="0.0" d="m194.86494 207.99472l556.0219 0" fill-rule="evenodd"/><path stroke="#000000" stroke-width="2.0" stroke-linejoin="round" stroke-linecap="butt" d="m194.86494 207.99472l556.0219 0" fill-rule="evenodd"/><path fill="#000000" fill-opacity="0.0" d="m710.54126 209.02145l0 27.401093l40.96399 0" fill-rule="evenodd"/><path stroke="#000000" stroke-width="2.0" stroke-linejoin="round" stroke-linecap="butt" d="m710.54126 209.02145l0 27.401093l40.96399 0" fill-rule="evenodd"/><path fill="#000000" fill-opacity="0.0" d="m195.49875 174.22226l0 33.76378" fill-rule="evenodd"/><path stroke="#000000" stroke-width="2.0" stroke-linejoin="round" stroke-linecap="butt" d="m195.49875 174.22226l0 33.76378" fill-rule="evenodd"/></g></svg>